<svg width="69" height="69" viewBox="0 0 69 69" fill="none" xmlns="http://www.w3.org/2000/svg">
<g clip-path="url(#clip0_2051_227)">
<path d="M80.2166 -79C70.5527 -72.4143 55.4014 -59.0866 63.1094 -17.0144C72.9185 36.5255 96.8886 22.4996 86.2426 63.8233" stroke="#4C4C4C" stroke-opacity="0.6"/>
<path d="M77.5189 -69.2783C67.855 -62.6927 52.7037 -49.3649 60.4117 -7.29271C70.2207 46.2472 94.1909 32.2212 83.5449 73.545" stroke="#4C4C4C" stroke-opacity="0.6"/>
<path d="M74.6931 -60.3301C65.0291 -53.7444 49.8778 -40.4167 57.5859 1.65553C67.3949 55.1954 91.365 41.1695 80.7191 82.4932" stroke="#4C4C4C" stroke-opacity="0.6"/>
<path d="M71.7253 -52.3777C62.0614 -45.792 46.9101 -32.4643 54.6181 9.60793C64.4271 63.1478 88.3973 49.1219 77.7513 90.4456" stroke="#4C4C4C" stroke-opacity="0.6"/>
<path d="M68.6094 -45.6648C58.9454 -39.0791 43.7941 -25.7514 51.5022 16.3208C61.3112 69.8607 85.2813 55.8348 74.6354 97.1585" stroke="#4C4C4C" stroke-opacity="0.6"/>
<path d="M65.3546 -40.4578C55.6906 -33.8721 40.5393 -20.5444 48.2474 21.5278C58.0564 75.0677 82.0265 61.0418 71.3806 102.366" stroke="#4C4C4C" stroke-opacity="0.6"/>
<path d="M61.9899 -36.916C52.326 -30.3304 37.1747 -17.0026 44.8828 25.0696C54.6918 78.6095 78.6619 64.5835 68.016 105.907" stroke="#4C4C4C" stroke-opacity="0.6"/>
<path d="M58.5594 -35.1199C48.8954 -28.5342 33.7442 -15.2065 41.4522 26.8657C51.2612 80.4056 75.2313 66.3797 64.5854 107.703" stroke="#4C4C4C" stroke-opacity="0.6"/>
<path d="M55.1058 -34.8157C45.4419 -28.23 30.2906 -14.9023 37.9986 27.1699C47.8076 80.7098 71.7778 66.6839 61.1318 108.008" stroke="#4C4C4C" stroke-opacity="0.6"/>
<path d="M51.6577 -35.7573C41.9938 -29.1717 26.8425 -15.8439 34.5505 26.2283C44.3596 79.7682 68.3297 65.7422 57.6837 107.066" stroke="#4C4C4C" stroke-opacity="0.6"/>
<path d="M48.2261 -37.5103C38.5622 -30.9246 23.4109 -17.5969 31.1189 24.4754C40.9279 78.0152 64.8981 63.9893 54.2521 105.313" stroke="#4C4C4C" stroke-opacity="0.6"/>
<path d="M44.8099 -39.8247C35.1459 -33.239 19.9946 -19.9113 27.7027 22.1609C37.5117 75.7008 61.4818 61.6748 50.8359 102.999" stroke="#4C4C4C" stroke-opacity="0.6"/>
<path d="M41.4025 -42.3787C31.7385 -35.793 16.5873 -22.4653 24.2953 19.607C34.1043 73.1468 58.0745 59.1209 47.4285 100.445" stroke="#4C4C4C" stroke-opacity="0.6"/>
<path d="M37.9967 -44.9773C28.3327 -38.3916 13.1815 -25.0639 20.8895 17.0083C30.6985 70.5482 54.6687 56.5223 44.0227 97.846" stroke="#4C4C4C" stroke-opacity="0.6"/>
<path d="M34.5867 -47.449C24.9227 -40.8633 9.77143 -27.5356 17.4795 14.5366C27.2885 68.0765 51.2586 54.0506 40.6127 95.3743" stroke="#4C4C4C" stroke-opacity="0.6"/>
<path d="M31.1687 -49.6899C21.5047 -43.1043 6.35347 -29.7766 14.0615 12.2957C23.8705 65.8356 47.8407 51.8096 37.1947 93.1334" stroke="#4C4C4C" stroke-opacity="0.6"/>
<path d="M27.7413 -51.6138C18.0773 -45.0281 2.92607 -31.7004 10.6341 10.3718C20.4431 63.9117 44.4133 49.8858 33.7673 91.2095" stroke="#4C4C4C" stroke-opacity="0.6"/>
<path d="M24.3045 -53.1694C14.6406 -46.5838 -0.510701 -33.2561 7.19733 8.81618C17.0063 62.3561 40.9765 48.3301 30.3305 89.6539" stroke="#4C4C4C" stroke-opacity="0.6"/>
<path d="M20.8386 -54.3472C11.1747 -47.7615 -3.97661 -34.4338 3.73142 7.63844C13.5404 61.1783 37.5106 47.1524 26.8646 88.4761" stroke="#4C4C4C" stroke-opacity="0.6"/>
<path d="M17.3902 -55.2534C7.7263 -48.6678 -7.42498 -35.34 0.283054 6.7322C10.0921 60.2721 34.0622 46.2461 23.4163 87.5699" stroke="#4C4C4C" stroke-opacity="0.6"/>
<path d="M13.9393 -55.9087C4.2754 -49.323 -10.8759 -35.9953 -3.16784 6.07692C6.64117 59.6168 30.6113 45.5909 19.9654 86.9146" stroke="#4C4C4C" stroke-opacity="0.6"/>
<path d="M10.4865 -56.3477C0.822523 -49.762 -14.3288 -36.4343 -6.62072 5.63796C3.18829 59.1778 27.1584 45.1519 16.5125 86.4756" stroke="#4C4C4C" stroke-opacity="0.6"/>
<path d="M7.03245 -56.4546C-2.63149 -49.8689 -17.7828 -36.5412 -10.0747 5.53102C-0.265722 59.0709 23.7044 45.045 13.0585 86.3687" stroke="#4C4C4C" stroke-opacity="0.6"/>
<path d="M3.57863 -56.2556C-6.08531 -49.67 -21.2366 -36.3422 -13.5286 5.73C-3.71955 59.2699 20.2506 45.2439 9.60464 86.5677" stroke="#4C4C4C" stroke-opacity="0.6"/>
<path d="M0.127334 -55.6223C-9.53661 -49.0367 -24.6879 -35.7089 -16.9799 6.3633C-7.17084 59.9032 16.7993 45.8772 6.15335 87.201" stroke="#4C4C4C" stroke-opacity="0.6"/>
<path d="M-3.31783 -54.49C-12.9818 -47.9043 -28.133 -34.5766 -20.425 7.49562C-10.616 61.0355 13.3541 47.0096 2.70819 88.3333" stroke="#4C4C4C" stroke-opacity="0.6"/>
<path d="M-6.75035 -52.7522C-16.4143 -46.1665 -31.5656 -32.8388 -23.8575 9.23341C-14.0485 62.7733 9.92162 48.7474 -0.724337 90.0711" stroke="#4C4C4C" stroke-opacity="0.6"/>
<g filter="url(#filter0_i_2051_227)">
<path d="M34.5 14.375V54.625" stroke="#484848" stroke-width="6" stroke-linecap="round" stroke-linejoin="round"/>
</g>
<g filter="url(#filter1_i_2051_227)">
<path d="M14.375 34.5H54.625" stroke="#484848" stroke-width="6" stroke-linecap="round" stroke-linejoin="round"/>
</g>
</g>
<defs>
<filter id="filter0_i_2051_227" x="31.5" y="11.375" width="6" height="49.25" filterUnits="userSpaceOnUse" color-interpolation-filters="sRGB">
<feFlood flood-opacity="0" result="BackgroundImageFix"/>
<feBlend mode="normal" in="SourceGraphic" in2="BackgroundImageFix" result="shape"/>
<feColorMatrix in="SourceAlpha" type="matrix" values="0 0 0 0 0 0 0 0 0 0 0 0 0 0 0 0 0 0 127 0" result="hardAlpha"/>
<feOffset dy="3"/>
<feGaussianBlur stdDeviation="2.5"/>
<feComposite in2="hardAlpha" operator="arithmetic" k2="-1" k3="1"/>
<feColorMatrix type="matrix" values="0 0 0 0 0 0 0 0 0 0 0 0 0 0 0 0 0 0 0.3 0"/>
<feBlend mode="normal" in2="shape" result="effect1_innerShadow_2051_227"/>
</filter>
<filter id="filter1_i_2051_227" x="11.375" y="31.5" width="46.25" height="9" filterUnits="userSpaceOnUse" color-interpolation-filters="sRGB">
<feFlood flood-opacity="0" result="BackgroundImageFix"/>
<feBlend mode="normal" in="SourceGraphic" in2="BackgroundImageFix" result="shape"/>
<feColorMatrix in="SourceAlpha" type="matrix" values="0 0 0 0 0 0 0 0 0 0 0 0 0 0 0 0 0 0 127 0" result="hardAlpha"/>
<feOffset dy="3"/>
<feGaussianBlur stdDeviation="2"/>
<feComposite in2="hardAlpha" operator="arithmetic" k2="-1" k3="1"/>
<feColorMatrix type="matrix" values="0 0 0 0 0 0 0 0 0 0 0 0 0 0 0 0 0 0 0.3 0"/>
<feBlend mode="normal" in2="shape" result="effect1_innerShadow_2051_227"/>
</filter>
<clipPath id="clip0_2051_227">
<rect width="69" height="69" rx="34.5" fill="white"/>
</clipPath>
</defs>
</svg>
