<svg width="204" height="149" viewBox="0 0 204 149" fill="none" xmlns="http://www.w3.org/2000/svg">
<rect x="3.04236" y="5.14001" width="143" height="138" rx="69" fill="#17A9D2"/>
<path d="M85.1311 19.1168C76.8138 32.0504 65.2998 54.5161 95.9846 78.6872C135.033 109.447 156.837 79.0491 164.988 118.124" stroke="url(#paint0_linear_2084_43)"/>
<path d="M81.7854 21.7606C73.4681 34.6942 61.954 57.1599 92.6389 81.331C131.688 112.091 130.597 75.8067 162.69 124.821" stroke="url(#paint1_linear_2084_43)"/>
<path d="M77.8253 23.5233C69.508 36.457 57.9939 58.9227 88.6788 83.0938C127.728 113.853 132.931 78.1407 158.605 128.322" stroke="url(#paint2_linear_2084_43)"/>
<path d="M73.4325 24.6658C65.1152 37.5994 53.6011 60.0651 84.286 84.2363C123.335 114.996 132.931 79.3078 155.104 132.99" stroke="url(#paint3_linear_2084_43)"/>
<path d="M100.833 11.9796C92.5156 24.9132 81.0015 47.3789 111.686 71.55C150.735 102.31 172.539 71.9119 180.69 110.987" stroke="url(#paint4_linear_2084_43)"/>
<path d="M97.4872 14.6234C89.1699 27.557 77.6558 50.0227 108.341 74.1938C147.389 104.953 169.193 74.5557 177.344 113.631" stroke="url(#paint5_linear_2084_43)"/>
<path d="M93.5271 16.3862C85.2098 29.3198 73.6958 51.7855 104.381 75.9567C143.429 106.716 165.233 76.3185 173.384 115.393" stroke="url(#paint6_linear_2084_43)"/>
<path d="M89.1343 17.5286C80.817 30.4622 69.3029 52.9279 99.9878 77.0991C139.037 107.859 160.84 77.4609 168.992 116.536" stroke="url(#paint7_linear_2084_43)"/>
<path d="M116.535 4.84237C108.217 17.776 96.7033 40.2417 127.388 64.4128C166.437 95.1723 188.24 64.7747 196.392 103.85" stroke="url(#paint8_linear_2084_43)"/>
<path d="M113.189 7.48623C104.872 20.4199 93.3576 42.8855 124.043 67.0567C163.091 97.8162 184.895 67.4185 193.046 106.493" stroke="url(#paint9_linear_2084_43)"/>
<path d="M109.229 9.24898C100.912 22.1826 89.3975 44.6483 120.082 68.8194C159.131 99.5789 180.935 69.1813 189.086 108.256" stroke="url(#paint10_linear_2084_43)"/>
<path d="M104.836 10.3914C96.5188 23.3251 85.0047 45.7908 115.69 69.9619C154.738 100.721 176.542 70.3238 184.693 109.399" stroke="url(#paint11_linear_2084_43)"/>
<path d="M123.503 0.684345C115.186 13.618 103.672 36.0837 134.357 60.2548C173.405 91.0143 195.209 60.6167 203.36 99.6916" stroke="url(#paint12_linear_2084_43)"/>
<path d="M119.11 1.8268C110.793 14.7604 99.2791 37.2261 129.964 61.3973C169.013 92.1568 190.816 61.7591 198.968 100.834" stroke="url(#paint13_linear_2084_43)"/>
<path d="M68.7731 25.4259C60.4558 38.3596 48.9417 60.8252 79.6266 84.9964C118.675 115.756 134.681 82.2253 149.269 131.823" stroke="url(#paint14_linear_2084_43)"/>
<path d="M63.9852 26.0017C55.6679 38.9354 44.1538 61.401 74.8387 85.5722C113.887 116.332 134.681 83.3923 144.601 134.74" stroke="url(#paint15_linear_2084_43)"/>
<path d="M59.1753 26.546C50.858 39.4797 39.3439 61.9454 70.0288 86.1165C109.077 116.876 133.514 84.5592 139.349 136.491" stroke="url(#paint16_linear_2084_43)"/>
<path d="M54.424 27.1743C46.1067 40.108 34.5926 62.5737 65.2775 86.7448C104.326 117.504 130.013 86.3097 134.681 134.157" stroke="url(#paint17_linear_2084_43)"/>
<path d="M49.7914 27.973C41.4741 40.9066 29.96 63.3723 60.6449 87.5434C99.6936 118.303 124.762 86.3098 130.013 134.157" stroke="url(#paint18_linear_2084_43)"/>
<path d="M45.3187 29.0006C37.0014 41.9342 25.4873 64.3999 56.1722 88.571C95.2209 119.331 119.51 88.571 125.345 130.656" stroke="url(#paint19_linear_2084_43)"/>
<path d="M41.0348 30.2992C32.7174 43.2328 21.2034 65.6985 51.8883 89.8696C90.937 120.629 118.343 89.8696 121.844 134.157" stroke="url(#paint20_linear_2084_43)"/>
<path d="M36.9502 31.8835C28.6329 44.8171 17.1188 67.2828 47.8037 91.454C86.8524 122.213 108.656 91.8158 116.807 130.891" stroke="url(#paint21_linear_2084_43)"/>
<path d="M33.0023 33.6639C24.685 46.5975 13.1709 69.0632 43.8558 93.2344C82.9045 123.994 104.708 93.5962 112.86 132.671" stroke="url(#paint22_linear_2084_43)"/>
<path d="M29.1683 35.6075C20.851 48.5411 9.3369 71.0068 40.0218 95.178C79.0705 125.937 100.874 95.5398 109.025 134.615" stroke="url(#paint23_linear_2084_43)"/>
<path d="M25.4642 37.7375C17.1469 50.6712 5.6328 73.1368 36.3177 97.308C75.3664 128.067 97.1698 97.6698 105.321 136.745" stroke="url(#paint24_linear_2084_43)"/>
<path d="M21.9091 40.0811C13.5918 53.0148 2.07774 75.4805 32.7626 99.6516C71.8113 130.411 93.6147 100.013 101.766 139.088" stroke="url(#paint25_linear_2084_43)"/>
<path d="M23.2327 33.2111C14.9154 46.1448 -4.10171 76.9675 26.5832 101.139C65.6319 131.898 87.4353 101.501 95.5869 140.575" stroke="url(#paint26_linear_2084_43)"/>
<path d="M17.9811 39.6296C9.66383 52.5632 -4.47596 80.9655 26.2089 105.137C65.2576 135.896 80.4333 103.251 88.5849 142.326" stroke="url(#paint27_linear_2084_43)"/>
<path d="M13.8966 43.1307C5.57932 56.0643 -7.39727 84.2179 23.2876 108.389C62.3363 139.149 75.7653 105.585 83.9168 144.66" stroke="url(#paint28_linear_2084_43)"/>
<path d="M11.5626 42.5471C2.4813 56.0804 -11.049 87.4044 20.4704 111.42C60.5811 141.982 71.7768 108.193 79.2488 148.161" stroke="url(#paint29_linear_2084_43)"/>
<defs>
<linearGradient id="paint0_linear_2084_43" x1="78.7804" y1="23.5457" x2="151.364" y2="127.625" gradientUnits="userSpaceOnUse">
<stop offset="0.1875" stop-color="#4C4C4C"/>
<stop offset="0.913462" stop-color="#FFBF00"/>
</linearGradient>
<linearGradient id="paint1_linear_2084_43" x1="75.4346" y1="26.1895" x2="148.019" y2="130.269" gradientUnits="userSpaceOnUse">
<stop offset="0.1875" stop-color="#4C4C4C"/>
<stop offset="0.913462" stop-color="#FFBF00"/>
</linearGradient>
<linearGradient id="paint2_linear_2084_43" x1="71.4745" y1="27.9523" x2="144.058" y2="132.032" gradientUnits="userSpaceOnUse">
<stop offset="0.1875" stop-color="#4C4C4C"/>
<stop offset="0.913462" stop-color="#FFBF00"/>
</linearGradient>
<linearGradient id="paint3_linear_2084_43" x1="67.0817" y1="29.0948" x2="139.666" y2="133.174" gradientUnits="userSpaceOnUse">
<stop offset="0.1875" stop-color="#4C4C4C"/>
<stop offset="0.913462" stop-color="#FFBF00"/>
</linearGradient>
<linearGradient id="paint4_linear_2084_43" x1="94.4821" y1="16.4085" x2="167.066" y2="120.488" gradientUnits="userSpaceOnUse">
<stop offset="0.1875" stop-color="#4C4C4C"/>
<stop offset="0.913462" stop-color="#FFBF00"/>
</linearGradient>
<linearGradient id="paint5_linear_2084_43" x1="91.1364" y1="19.0523" x2="163.72" y2="123.132" gradientUnits="userSpaceOnUse">
<stop offset="0.1875" stop-color="#4C4C4C"/>
<stop offset="0.913462" stop-color="#FFBF00"/>
</linearGradient>
<linearGradient id="paint6_linear_2084_43" x1="87.1764" y1="20.8151" x2="159.76" y2="124.895" gradientUnits="userSpaceOnUse">
<stop offset="0.1875" stop-color="#4C4C4C"/>
<stop offset="0.913462" stop-color="#FFBF00"/>
</linearGradient>
<linearGradient id="paint7_linear_2084_43" x1="82.7835" y1="21.9575" x2="155.367" y2="126.037" gradientUnits="userSpaceOnUse">
<stop offset="0.1875" stop-color="#4C4C4C"/>
<stop offset="0.913462" stop-color="#FFBF00"/>
</linearGradient>
<linearGradient id="paint8_linear_2084_43" x1="110.184" y1="9.27133" x2="182.768" y2="113.351" gradientUnits="userSpaceOnUse">
<stop offset="0.1875" stop-color="#4C4C4C"/>
<stop offset="0.913462" stop-color="#FFBF00"/>
</linearGradient>
<linearGradient id="paint9_linear_2084_43" x1="106.838" y1="11.9152" x2="179.422" y2="115.995" gradientUnits="userSpaceOnUse">
<stop offset="0.1875" stop-color="#4C4C4C"/>
<stop offset="0.913462" stop-color="#FFBF00"/>
</linearGradient>
<linearGradient id="paint10_linear_2084_43" x1="102.878" y1="13.6779" x2="175.462" y2="117.757" gradientUnits="userSpaceOnUse">
<stop offset="0.1875" stop-color="#4C4C4C"/>
<stop offset="0.913462" stop-color="#FFBF00"/>
</linearGradient>
<linearGradient id="paint11_linear_2084_43" x1="98.4853" y1="14.8204" x2="171.069" y2="118.9" gradientUnits="userSpaceOnUse">
<stop offset="0.1875" stop-color="#4C4C4C"/>
<stop offset="0.913462" stop-color="#FFBF00"/>
</linearGradient>
<linearGradient id="paint12_linear_2084_43" x1="117.152" y1="5.11331" x2="189.736" y2="109.193" gradientUnits="userSpaceOnUse">
<stop offset="0.1875" stop-color="#4C4C4C"/>
<stop offset="0.913462" stop-color="#FFBF00"/>
</linearGradient>
<linearGradient id="paint13_linear_2084_43" x1="112.76" y1="6.25576" x2="185.344" y2="110.335" gradientUnits="userSpaceOnUse">
<stop offset="0.1875" stop-color="#4C4C4C"/>
<stop offset="0.913462" stop-color="#FFBF00"/>
</linearGradient>
<linearGradient id="paint14_linear_2084_43" x1="62.4223" y1="29.8549" x2="135.006" y2="133.934" gradientUnits="userSpaceOnUse">
<stop offset="0.1875" stop-color="#4C4C4C"/>
<stop offset="0.913462" stop-color="#FFBF00"/>
</linearGradient>
<linearGradient id="paint15_linear_2084_43" x1="57.6344" y1="30.4307" x2="130.218" y2="134.51" gradientUnits="userSpaceOnUse">
<stop offset="0.1875" stop-color="#4C4C4C"/>
<stop offset="0.913462" stop-color="#FFBF00"/>
</linearGradient>
<linearGradient id="paint16_linear_2084_43" x1="52.8245" y1="30.975" x2="125.408" y2="135.055" gradientUnits="userSpaceOnUse">
<stop offset="0.1875" stop-color="#4C4C4C"/>
<stop offset="0.913462" stop-color="#FFBF00"/>
</linearGradient>
<linearGradient id="paint17_linear_2084_43" x1="48.0732" y1="31.6033" x2="120.657" y2="135.683" gradientUnits="userSpaceOnUse">
<stop offset="0.1875" stop-color="#4C4C4C"/>
<stop offset="0.913462" stop-color="#FFBF00"/>
</linearGradient>
<linearGradient id="paint18_linear_2084_43" x1="43.4406" y1="32.4019" x2="116.025" y2="136.481" gradientUnits="userSpaceOnUse">
<stop offset="0.1875" stop-color="#4C4C4C"/>
<stop offset="0.913462" stop-color="#FFBF00"/>
</linearGradient>
<linearGradient id="paint19_linear_2084_43" x1="38.9679" y1="33.4295" x2="111.552" y2="137.509" gradientUnits="userSpaceOnUse">
<stop offset="0.1875" stop-color="#4C4C4C"/>
<stop offset="0.913462" stop-color="#FFBF00"/>
</linearGradient>
<linearGradient id="paint20_linear_2084_43" x1="34.684" y1="34.7281" x2="107.268" y2="138.808" gradientUnits="userSpaceOnUse">
<stop offset="0.1875" stop-color="#4C4C4C"/>
<stop offset="0.913462" stop-color="#FFBF00"/>
</linearGradient>
<linearGradient id="paint21_linear_2084_43" x1="30.5994" y1="36.3125" x2="103.183" y2="140.392" gradientUnits="userSpaceOnUse">
<stop offset="0.1875" stop-color="#4C4C4C"/>
<stop offset="0.913462" stop-color="#FFBF00"/>
</linearGradient>
<linearGradient id="paint22_linear_2084_43" x1="26.6515" y1="38.0929" x2="99.2355" y2="142.172" gradientUnits="userSpaceOnUse">
<stop offset="0.1875" stop-color="#4C4C4C"/>
<stop offset="0.913462" stop-color="#FFBF00"/>
</linearGradient>
<linearGradient id="paint23_linear_2084_43" x1="22.8175" y1="40.0365" x2="95.4014" y2="144.116" gradientUnits="userSpaceOnUse">
<stop offset="0.1875" stop-color="#4C4C4C"/>
<stop offset="0.913462" stop-color="#FFBF00"/>
</linearGradient>
<linearGradient id="paint24_linear_2084_43" x1="19.1134" y1="42.1665" x2="91.6973" y2="146.246" gradientUnits="userSpaceOnUse">
<stop offset="0.1875" stop-color="#4C4C4C"/>
<stop offset="0.913462" stop-color="#FFBF00"/>
</linearGradient>
<linearGradient id="paint25_linear_2084_43" x1="15.5583" y1="44.5101" x2="88.1423" y2="148.59" gradientUnits="userSpaceOnUse">
<stop offset="0.1875" stop-color="#4C4C4C"/>
<stop offset="0.913462" stop-color="#FFBF00"/>
</linearGradient>
<linearGradient id="paint26_linear_2084_43" x1="12.1777" y1="47.1039" x2="84.7617" y2="151.183" gradientUnits="userSpaceOnUse">
<stop offset="0.1875" stop-color="#4C4C4C"/>
<stop offset="0.913462" stop-color="#FFBF00"/>
</linearGradient>
<linearGradient id="paint27_linear_2084_43" x1="9.00462" y1="49.9951" x2="81.5885" y2="154.075" gradientUnits="userSpaceOnUse">
<stop offset="0.1875" stop-color="#4C4C4C"/>
<stop offset="0.913462" stop-color="#FFBF00"/>
</linearGradient>
<linearGradient id="paint28_linear_2084_43" x1="6.14154" y1="53.5007" x2="78.5877" y2="157.383" gradientUnits="userSpaceOnUse">
<stop offset="0.1875" stop-color="#4C4C4C"/>
<stop offset="0.913462" stop-color="#FFBF00"/>
</linearGradient>
<linearGradient id="paint29_linear_2084_43" x1="3.0163" y1="53.8999" x2="77.1827" y2="160.249" gradientUnits="userSpaceOnUse">
<stop offset="0.1875" stop-color="#4C4C4C"/>
<stop offset="0.913462" stop-color="#FFBF00"/>
</linearGradient>
</defs>
</svg>
