<svg width="312" height="143" viewBox="0 0 312 143" fill="none" xmlns="http://www.w3.org/2000/svg">
<path d="M247.102 7.40454C246.221 8.20822 245.662 9.06555 245.423 10.0141C245.185 10.9598 244.948 11.899 244.717 12.8557C239.615 27.5989 247.886 42.4956 255.84 54.255C261.633 62.8534 268.474 70.9396 277.147 76.7662C281.205 79.8681 287.082 81.2932 289.364 85.2012C290.627 89.618 287.756 94.7845 285.982 99.4166C285.223 101.203 284.462 102.925 283.621 104.794C283.924 104.933 284.227 105.072 284.53 105.212C285.404 103.353 286.197 101.639 286.991 99.855C288.802 95.1088 292.007 90.452 290.603 84.6964C287.451 79.5344 281.985 78.7086 278.015 75.4944C269.646 69.7281 263.02 61.7616 257.365 53.238C249.505 41.3346 241.781 27.4933 246.66 13.3252C246.889 12.3819 247.124 11.4483 247.362 10.5024C247.601 9.55459 247.516 8.52393 247.102 7.40454Z" fill="#A2A2A2"/>
<path d="M244.602 11.4539C234.602 26.7512 241.102 51.047 255.102 69.0439C273.959 93.2842 299.102 84.3412 276.102 118.985" stroke="#A2A2A2"/>
<path d="M241.602 14.1533C233.102 31.7003 230.292 41.5053 243.602 63.6447C260.102 91.09 289.034 85.8797 272.979 120.757" stroke="#A2A2A2"/>
<path d="M238.602 16.403C231.602 33.5 225.602 30.3505 232.544 59.2493C243.603 105.294 283.486 92.5994 267.431 127.477" stroke="#A2A2A2"/>
<path d="M236.602 17.7528C229.103 33.5001 221.102 30.3506 226.995 64.9169C234.934 111.48 277.937 98.267 261.882 133.145" stroke="#A2A2A2"/>
<path d="M232.602 20.0023C223.602 34.8497 215.102 33.5 221.447 69.3138C229.689 115.834 272.389 102.664 256.334 137.542" stroke="#A2A2A2"/>
<path d="M228.602 21.3522C221.602 31.2505 204.274 36.7752 215.899 72.2846C230.692 117.473 266.841 105.635 250.786 140.512" stroke="#A2A2A2"/>
<path d="M224.602 21.802C214.603 29.4507 198.726 38.3062 210.351 73.8156C225.143 119.004 261.293 107.166 245.237 142.043" stroke="#A2A2A2"/>
<path d="M221.602 21.802C207.028 27.3604 193.178 38.5481 204.802 74.0575C219.595 119.246 255.744 107.408 239.689 142.285" stroke="#A2A2A2"/>
<path d="M216.102 20.9021C209.102 23.6016 185.102 35.2996 199.254 73.2791C215.896 117.943 250.196 106.629 234.141 141.507" stroke="#A2A2A2"/>
<path d="M212.102 19.5525C202.602 24.5016 183.602 30.8005 193.102 66.7943C205.199 112.627 244.648 105.132 228.593 140.01" stroke="#A2A2A2"/>
<path d="M209.102 18.2026C198.602 18.6526 176.533 34.3332 188.157 69.8425C202.95 115.031 239.099 103.193 223.044 138.07" stroke="#A2A2A2"/>
<path d="M203.102 15.9531C188.528 21.5115 170.985 32.18 182.609 67.6893C197.402 112.877 233.551 101.039 217.496 135.917" stroke="#A2A2A2"/>
<path d="M198.602 13.2535C184.028 18.8119 165.436 29.9903 177.061 65.4997C191.854 110.688 228.003 98.8498 211.948 133.727" stroke="#A2A2A2"/>
<path d="M194.102 11.0039C179.528 16.5623 159.888 27.8981 171.513 63.4074C186.305 108.596 222.455 96.7576 206.399 131.635" stroke="#A2A2A2"/>
<path d="M189.602 8.75427C175.028 14.3126 154.34 26.0028 165.964 61.5122C180.757 106.7 216.906 94.8623 200.851 129.74" stroke="#A2A2A2"/>
<path d="M185.602 6.95459C171.028 12.5129 148.792 24.3729 160.416 59.8823C175.209 105.07 211.358 93.2324 195.303 128.11" stroke="#A2A2A2"/>
<path d="M181.602 5.15491C167.028 10.7133 143.243 23.0569 154.868 58.5663C169.661 103.754 205.81 91.9164 189.755 126.794" stroke="#A2A2A2"/>
<path d="M177.102 3.80512C162.528 9.36348 137.695 22.0719 149.319 57.5812C164.112 102.769 200.261 90.9313 184.206 125.809" stroke="#A2A2A2"/>
<path d="M172.102 2.90527C157.528 8.46363 132.147 21.3138 143.771 56.8232C158.564 102.011 194.713 90.1733 178.658 125.051" stroke="#A2A2A2"/>
<path d="M167.102 2.00549C152.528 7.56385 126.598 20.7448 138.223 56.2542C153.016 101.442 189.165 89.6043 173.11 124.482" stroke="#A2A2A2"/>
<path d="M162.602 1.55554C148.028 7.1139 121.05 20.3917 132.674 55.9011C147.467 101.089 183.617 89.2512 167.561 124.129" stroke="#A2A2A2"/>
<path d="M156.102 1.55554C141.528 7.1139 115.502 20.2861 127.126 55.7954C141.919 100.984 178.068 89.1456 162.013 124.023" stroke="#A2A2A2"/>
<path d="M149.602 2.00537C135.028 7.56373 109.953 20.47 121.578 55.9793C136.371 101.167 172.52 89.3295 156.465 124.207" stroke="#A2A2A2"/>
<path d="M144.602 2.45544C130.028 8.0138 104.405 20.9988 116.03 56.5082C130.823 101.696 166.972 89.8583 150.917 124.736" stroke="#A2A2A2"/>
<path d="M139.602 2.90527C125.028 8.46363 98.857 21.9455 110.481 57.4549C125.274 102.643 161.423 90.805 145.368 125.683" stroke="#A2A2A2"/>
<path d="M130.602 4.70496C117.602 12.3536 93.3086 23.4152 104.933 58.9245C119.726 104.113 155.875 92.2747 139.82 127.152" stroke="#A2A2A2" stroke-linecap="round"/>
<path d="M129.102 4.70496C114.602 10.5539 87.7604 25.5556 99.3848 61.065C114.178 106.253 150.327 94.4151 134.272 129.293" stroke="#A2A2A2"/>
<path d="M129.102 4.70496C104.102 11.4538 82.2121 28.5834 93.8365 64.0927C108.629 109.281 144.778 97.4428 128.723 132.32" stroke="#A2A2A2" stroke-linecap="round"/>
<path d="M117.602 7.85449C98.1025 13.7035 76.6638 32.6212 88.2882 68.1306C103.081 113.319 139.23 101.481 123.175 136.358" stroke="#A2A2A2" stroke-linecap="round"/>
<path d="M110.102 10.554C112.348 9.50967 114.815 8.77138 117.232 8.03634C138.958 1.97769 162.855 -1.0246 184.224 7.03415C184.89 7.29833 185.552 7.57508 186.208 7.86487C196.222 12.3085 205.467 19.2344 216.633 21.8588C228.018 25.0514 239.532 18.4366 245.825 9.62429C247.361 7.63836 248.757 5.56776 250.102 3.35433C248.644 5.49457 247.148 7.48554 245.528 9.38234C238.764 17.8604 227.686 23.6046 216.973 20.3342C206.345 17.5866 197.299 10.6599 186.996 6.04221C186.315 5.74039 185.629 5.4528 184.938 5.17897C162.755 -3.15424 138.565 0.585197 117.11 7.67503C114.725 8.52633 112.291 9.38819 110.102 10.554Z" fill="#A2A2A2"/>
<path d="M56.0938 66.6875C55.3021 66.7292 54.6354 67.0312 54.0938 67.5938C53.5729 68.1562 53.1979 68.8021 52.9688 69.5312C52.7396 70.2396 52.625 70.9688 52.625 71.7188C52.625 72.4688 52.7292 73.2083 52.9375 73.9375C53.1667 74.6667 53.5521 75.3125 54.0938 75.875C54.6354 76.4167 55.3021 76.7083 56.0938 76.75H66.4062C67.7188 76.875 68.4375 77.5938 68.5625 78.9062C68.5417 79.4896 68.3229 79.9792 67.9062 80.375C67.4896 80.75 66.9896 80.9375 66.4062 80.9375H56.4375H55C53.5417 80.8542 52.3438 80.3021 51.4062 79.2812C50.4688 78.2396 49.7917 77.0625 49.375 75.75C48.9792 74.4375 48.7812 73.0938 48.7812 71.7188C48.7812 70.6979 48.8958 69.6875 49.125 68.6875C49.3542 67.6875 49.7083 66.7396 50.1875 65.8438C50.6875 64.9271 51.3438 64.1458 52.1562 63.5C52.9896 62.8542 53.9375 62.5208 55 62.5H55.5938H66.4062C67.7188 62.625 68.4375 63.3438 68.5625 64.6562C68.5625 65.2396 68.3438 65.7292 67.9062 66.125C67.4896 66.5 66.9896 66.6875 66.4062 66.6875H56.0938ZM79.1863 80.9375C77.3529 80.875 75.9675 80.4479 75.03 79.6562C74.0925 78.8438 73.4154 77.9375 72.9988 76.9375C72.5821 75.9167 72.3738 74.8854 72.3738 73.8438C72.3738 72.7604 72.5717 71.7188 72.9675 70.7188C73.3842 69.6979 74.0613 68.7917 74.9988 68C75.9571 67.1875 77.1654 66.7708 78.6238 66.75H88.7488C90.2071 66.7708 91.405 67.1875 92.3425 68C93.3008 68.7917 93.9779 69.6979 94.3738 70.7188C94.7904 71.7188 94.9988 72.7604 94.9988 73.8438C94.9988 74.8854 94.7904 75.9167 94.3738 76.9375C93.9571 77.9375 93.28 78.8438 92.3425 79.6562C91.405 80.4479 90.0196 80.875 88.1863 80.9375H79.1863ZM78.4988 70.9375C78.1029 70.9375 77.7592 71.1042 77.4675 71.4375C77.1758 71.75 76.9571 72.125 76.8113 72.5625C76.6863 72.9792 76.6238 73.3958 76.6238 73.8125C76.6238 74.25 76.6863 74.6875 76.8113 75.125C76.9571 75.5417 77.1758 75.9167 77.4675 76.25C77.7592 76.5625 78.1029 76.7292 78.4988 76.75H88.8738C89.2696 76.7292 89.6133 76.5625 89.905 76.25C90.1967 75.9167 90.405 75.5417 90.53 75.125C90.6758 74.6875 90.7488 74.25 90.7488 73.8125C90.7488 73.3958 90.6758 72.9792 90.53 72.5625C90.405 72.125 90.1967 71.75 89.905 71.4375C89.6133 71.1042 89.2696 70.9375 88.8738 70.9375H78.4988ZM102.029 62C102.591 62.0208 103.07 62.2292 103.466 62.625C103.862 63 104.07 63.4688 104.091 64.0312V79.3438C103.966 80.5938 103.279 81.2708 102.029 81.375C101.445 81.375 100.935 81.1875 100.498 80.8125C100.081 80.4167 99.8725 79.9271 99.8725 79.3438V64.0312C99.8933 63.4479 100.112 62.9688 100.529 62.5938C100.945 62.1979 101.445 62 102.029 62ZM126.809 79.2812V71.75C126.809 71.2292 126.538 70.9583 125.996 70.9375H115.059C114.663 70.9583 114.319 71.1354 114.028 71.4688C113.736 71.7812 113.517 72.1562 113.371 72.5938C113.246 73.0104 113.184 73.4375 113.184 73.875C113.184 74.2917 113.246 74.7188 113.371 75.1562C113.517 75.5729 113.736 75.9479 114.028 76.2812C114.319 76.5938 114.663 76.75 115.059 76.75H123.059C123.642 76.75 124.132 76.9583 124.528 77.375C124.944 77.7708 125.153 78.2604 125.153 78.8438C125.153 79.4271 124.944 79.9167 124.528 80.3125C124.132 80.7292 123.642 80.9375 123.059 80.9375H115.184C113.725 80.9167 112.517 80.5104 111.559 79.7188C110.621 78.9062 109.944 78 109.528 77C109.132 75.9792 108.934 74.9271 108.934 73.8438C108.934 72.8021 109.142 71.7812 109.559 70.7812C109.975 69.7604 110.653 68.8542 111.59 68.0625C112.528 67.25 113.913 66.8125 115.746 66.75H128.871C129.455 66.75 129.955 66.9479 130.371 67.3438C130.788 67.7188 131.007 68.1979 131.028 68.7812V79.2812C131.028 79.8646 130.809 80.3542 130.371 80.75C129.955 81.125 129.455 81.3125 128.871 81.3125C127.621 81.2083 126.934 80.5312 126.809 79.2812Z" fill="#3F3F3F"/>
<path d="M157.183 72.6875C157.578 73.5208 157.776 74.3646 157.776 75.2188C157.776 76.0521 157.568 76.8854 157.151 77.7188C156.735 78.5312 156.058 79.2604 155.12 79.9062C154.183 80.5312 152.985 80.8438 151.526 80.8438H151.339C151.214 80.8646 151.089 80.875 150.964 80.875H138.401C137.839 80.8542 137.36 80.6562 136.964 80.2812C136.589 79.8854 136.391 79.4062 136.37 78.8438V64.5312C136.391 63.9688 136.589 63.5 136.964 63.125C137.36 62.7292 137.839 62.5208 138.401 62.5H149.151C149.276 62.5 149.401 62.5104 149.526 62.5312H149.714C151.172 62.5729 152.37 62.9062 153.308 63.5312C154.245 64.1562 154.922 64.875 155.339 65.6875C155.755 66.4792 155.964 67.2812 155.964 68.0938C155.964 68.9271 155.766 69.7396 155.37 70.5312C155.349 70.5729 155.328 70.6042 155.308 70.625C156.162 71.2292 156.787 71.9167 157.183 72.6875ZM151.714 76.6875C152.11 76.7083 152.433 76.6354 152.683 76.4688C152.953 76.3021 153.151 76.1146 153.276 75.9062C153.401 75.6771 153.464 75.4479 153.464 75.2188C153.464 75.0729 153.401 74.875 153.276 74.625C153.151 74.3542 152.953 74.1354 152.683 73.9688C152.433 73.8021 152.11 73.7083 151.714 73.6875H149.714H140.589V75.8438C140.589 76.4062 140.88 76.6875 141.464 76.6875H141.714H151.714ZM150.901 69.2188C151.151 69.0729 151.339 68.9062 151.464 68.7188C151.589 68.5104 151.651 68.3021 151.651 68.0938C151.651 67.8854 151.589 67.6875 151.464 67.5C151.339 67.2917 151.141 67.1146 150.87 66.9688C150.62 66.8021 150.297 66.7083 149.901 66.6875H141.464C140.88 66.6875 140.589 66.9688 140.589 67.5312V69.5H149.901C150.297 69.4792 150.63 69.3854 150.901 69.2188ZM168.744 80.9375C166.91 80.875 165.525 80.4479 164.588 79.6562C163.65 78.8438 162.973 77.9375 162.556 76.9375C162.14 75.9167 161.931 74.8854 161.931 73.8438C161.931 72.7604 162.129 71.7188 162.525 70.7188C162.942 69.6979 163.619 68.7917 164.556 68C165.515 67.1875 166.723 66.7708 168.181 66.75H178.306C179.765 66.7708 180.963 67.1875 181.9 68C182.858 68.7917 183.535 69.6979 183.931 70.7188C184.348 71.7188 184.556 72.7604 184.556 73.8438C184.556 74.8854 184.348 75.9167 183.931 76.9375C183.515 77.9375 182.838 78.8438 181.9 79.6562C180.963 80.4479 179.577 80.875 177.744 80.9375H168.744ZM168.056 70.9375C167.66 70.9375 167.317 71.1042 167.025 71.4375C166.733 71.75 166.515 72.125 166.369 72.5625C166.244 72.9792 166.181 73.3958 166.181 73.8125C166.181 74.25 166.244 74.6875 166.369 75.125C166.515 75.5417 166.733 75.9167 167.025 76.25C167.317 76.5625 167.66 76.7292 168.056 76.75H178.431C178.827 76.7292 179.171 76.5625 179.463 76.25C179.754 75.9167 179.963 75.5417 180.088 75.125C180.233 74.6875 180.306 74.25 180.306 73.8125C180.306 73.3958 180.233 72.9792 180.088 72.5625C179.963 72.125 179.754 71.75 179.463 71.4375C179.171 71.1042 178.827 70.9375 178.431 70.9375H168.056ZM190.086 70.6875C190.482 69.6875 191.149 68.7917 192.086 68C193.045 67.1875 194.253 66.7708 195.711 66.75H207.461C208.045 66.75 208.534 66.9583 208.93 67.375C209.347 67.7708 209.555 68.2604 209.555 68.8438C209.555 69.4271 209.347 69.9271 208.93 70.3438C208.534 70.7396 208.045 70.9375 207.461 70.9375H195.586C195.19 70.9375 194.847 71.1042 194.555 71.4375C194.263 71.75 194.034 72.125 193.867 72.5625C193.722 73 193.649 73.4167 193.649 73.8125V79.2812C193.524 80.5312 192.836 81.2083 191.586 81.3125C191.003 81.3125 190.492 81.125 190.055 80.75C189.638 80.3542 189.43 79.8646 189.43 79.2812V73.8438H189.461C189.461 72.7604 189.67 71.7083 190.086 70.6875ZM220.335 80.9375C218.502 80.875 217.116 80.4479 216.179 79.6562C215.241 78.8438 214.564 77.9375 214.148 76.9375C213.731 75.9167 213.523 74.8854 213.523 73.8438C213.523 72.7604 213.72 71.7188 214.116 70.7188C214.533 69.6979 215.21 68.7917 216.148 68C217.106 67.1875 218.314 66.7708 219.773 66.75H231.648C232.231 66.75 232.72 66.9479 233.116 67.3438C233.533 67.7188 233.741 68.1771 233.741 68.7188C233.741 69.2812 233.533 69.7604 233.116 70.1562C232.72 70.5312 232.231 70.7188 231.648 70.7188H219.96C219.502 70.7188 219.095 70.875 218.741 71.1875C218.408 71.5 218.158 71.9062 217.991 72.4062C217.845 72.9062 217.773 73.3958 217.773 73.875C217.773 74.3958 217.845 74.9062 217.991 75.4062C218.158 75.9062 218.408 76.3125 218.741 76.625C219.095 76.9167 219.502 77.0729 219.96 77.0938H231.648C232.231 77.0938 232.72 77.2812 233.116 77.6562C233.533 78.0312 233.741 78.4792 233.741 79C233.741 79.5417 233.533 80 233.116 80.375C232.72 80.75 232.231 80.9375 231.648 80.9375H220.335ZM233.366 73.7812C233.366 74.1771 233.189 74.5208 232.835 74.8125C232.523 75.0833 232.127 75.2188 231.648 75.2188H221.429C220.95 75.2188 220.543 75.0833 220.21 74.8125C219.877 74.5208 219.71 74.1771 219.71 73.7812C219.71 73.4062 219.877 73.0729 220.21 72.7812C220.543 72.5104 220.95 72.375 221.429 72.375H231.648C232.127 72.375 232.533 72.5208 232.866 72.8125C233.2 73.0833 233.366 73.4062 233.366 73.7812ZM240.771 62C241.334 62.0208 241.813 62.2292 242.209 62.625C242.605 63 242.813 63.4688 242.834 64.0312V79.3438C242.709 80.5938 242.021 81.2708 240.771 81.375C240.188 81.375 239.678 81.1875 239.24 80.8125C238.823 80.4167 238.615 79.9271 238.615 79.3438V64.0312C238.636 63.4479 238.855 62.9688 239.271 62.5938C239.688 62.1979 240.188 62 240.771 62ZM250.239 62C250.801 62.0208 251.28 62.2292 251.676 62.625C252.072 63 252.28 63.4688 252.301 64.0312V79.3438C252.176 80.5938 251.489 81.2708 250.239 81.375C249.655 81.375 249.145 81.1875 248.708 80.8125C248.291 80.4167 248.083 79.9271 248.083 79.3438V64.0312C248.103 63.4479 248.322 62.9688 248.739 62.5938C249.155 62.1979 249.655 62 250.239 62ZM259.706 66.4375C260.269 66.4583 260.748 66.6667 261.144 67.0625C261.54 67.4375 261.748 67.9062 261.769 68.4688V79.2812C261.644 80.5312 260.956 81.2083 259.706 81.3125C259.123 81.3125 258.613 81.125 258.175 80.75C257.758 80.3542 257.55 79.8646 257.55 79.2812V68.4688C257.571 67.8854 257.79 67.4062 258.206 67.0312C258.623 66.6354 259.123 66.4375 259.706 66.4375ZM257.081 62.375C257.081 61.7917 257.331 61.2917 257.831 60.875C258.331 60.4583 258.935 60.25 259.644 60.25C260.352 60.25 260.956 60.4583 261.456 60.875C261.956 61.2917 262.206 61.7917 262.206 62.375C262.206 62.9792 261.956 63.4896 261.456 63.9062C260.956 64.3229 260.352 64.5312 259.644 64.5312C258.935 64.5312 258.331 64.3229 257.831 63.9062C257.331 63.4896 257.081 62.9792 257.081 62.375Z" fill="#FFC107"/>
</svg>
